<svg xmlns="http://www.w3.org/2000/svg" viewBox="0 0 348 348" fill="none"><path d="M341.992 343.446H5.079V5.776h336.912z" stroke="#000" stroke-width="2"/><path d="M64.337 308.668c0 8.376-6.966 15.165-15.56 15.165-4.126 0-8.084-1.597-11.001-4.441-2.918-2.844-4.558-6.702-4.558-10.724 0-8.376 6.966-15.165 15.56-15.165 8.593 0 15.559 6.79 15.559 15.165z" stroke="#000" stroke-width="2"/><path fill="#000" stroke="#fff" stroke-width="20.774" stroke-linecap="round" d="M33.855 33.93h279.362V231.1H33.855z"/><path stroke="#000" stroke-width="1.755" stroke-linecap="round" d="M22.874 23.73h301.324V241.3H22.874z"/><path stroke="#000" stroke-width="1.702" stroke-linecap="round" d="M114.476 272.055h183.951v41.186H114.476z"/><g aria-label="Start Lyrics" style="line-height:1.25;-inkscape-font-specification:Mate;text-align:center" font-weight="400" font-size="31.29" font-family="Arial" letter-spacing="0" word-spacing="0" text-anchor="middle" fill="#000" stroke-width=".782"><path d="M123.705 295.826l3.029-.226q.215 1.552.992 2.554.795.987 2.45 1.608 1.654.606 3.723.606 1.836 0 3.243-.465 1.407-.466 2.085-1.27.695-.818.695-1.777 0-.973-.662-1.693-.662-.733-2.184-1.227-.977-.325-4.32-1.002-3.342-.69-4.682-1.297-1.738-.776-2.598-1.919-.844-1.157-.844-2.581 0-1.566 1.043-2.92 1.042-1.369 3.044-2.074 2.003-.705 4.452-.705 2.697 0 4.749.747 2.068.734 3.177 2.173 1.108 1.439 1.191 3.258l-3.078.198q-.248-1.961-1.687-2.963-1.424-1.001-4.22-1.001-2.912 0-4.253.917-1.324.903-1.324 2.186 0 1.115.944 1.834.926.72 4.832 1.481 3.921.748 5.377 1.312 2.119.832 3.128 2.116 1.01 1.27 1.01 2.934 0 1.65-1.11 3.118-1.108 1.453-3.193 2.27-2.068.805-4.666.805-3.293 0-5.527-.818-2.218-.818-3.492-2.455-1.257-1.65-1.324-3.724zM153.557 300.2l.43 2.242q-1.257.226-2.25.226-1.622 0-2.515-.438-.894-.437-1.258-1.142-.364-.72-.364-3.005v-8.619h-2.184v-1.975h2.184v-3.71l2.962-1.523v5.233h2.995v1.975h-2.995v8.76q0 1.086.149 1.397.165.31.513.493.364.184 1.026.184.496 0 1.307-.099zM167.92 300.622q-1.654 1.2-3.193 1.693-1.523.494-3.277.494-2.896 0-4.451-1.2-1.555-1.212-1.555-3.089 0-1.1.579-2.003.595-.917 1.539-1.467.96-.55 2.15-.832.878-.197 2.648-.38 3.608-.368 5.312-.875.017-.522.017-.663 0-1.552-.844-2.187-1.142-.86-3.392-.86-2.102 0-3.111.634-.993.621-1.473 2.215l-2.913-.338q.398-1.594 1.308-2.568.91-.987 2.63-1.51 1.722-.535 3.989-.535 2.25 0 3.657.451 1.406.452 2.068 1.143.662.677.927 1.72.149.65.149 2.342v3.386q0 3.54.182 4.486.198.93.761 1.791h-3.11q-.464-.79-.597-1.848zm-.248-5.67q-1.622.564-4.865.959-1.837.225-2.598.508-.761.282-1.175.832-.413.536-.413 1.199 0 1.016.893 1.693.91.677 2.648.677 1.72 0 3.061-.635 1.34-.649 1.97-1.763.48-.86.48-2.54zM175.284 302.47v-14.98h2.68v2.27q1.027-1.594 1.887-2.101.877-.508 1.92-.508 1.505 0 3.06.818l-1.025 2.356q-1.092-.55-2.184-.55-.977 0-1.754.507-.778.494-1.11 1.383-.495 1.354-.495 2.962v7.843zM193.139 300.2l.43 2.242q-1.258.226-2.25.226-1.622 0-2.516-.438-.893-.437-1.257-1.142-.364-.72-.364-3.005v-8.619h-2.185v-1.975h2.185v-3.71l2.962-1.523v5.233h2.995v1.975h-2.995v8.76q0 1.086.149 1.397.165.31.513.493.364.184 1.025.184.497 0 1.308-.099zM205.682 302.47v-20.68h3.21v18.24h11.947v2.44zM222.908 308.24l-.331-2.384q.976.225 1.704.225.993 0 1.589-.282.595-.282.976-.79.281-.38.91-1.89.083-.212.265-.62l-6.669-15.01h3.21l3.657 8.676q.712 1.65 1.275 3.47.513-1.75 1.224-3.414l3.756-8.732h2.979l-6.685 15.235q-1.076 2.469-1.672 3.4-.794 1.255-1.82 1.834-1.026.592-2.449.592-.86 0-1.92-.31zM239.952 302.47v-14.98h2.68v2.27q1.026-1.594 1.887-2.101.877-.508 1.92-.508 1.505 0 3.06.818l-1.025 2.356q-1.093-.55-2.185-.55-.976 0-1.754.507-.777.494-1.108 1.383-.497 1.354-.497 2.962v7.843zM251.32 284.71v-2.92h2.978v2.92zm0 17.76v-14.98h2.978v14.98zM270.316 296.983l2.93.324q-.48 2.582-2.466 4.049-1.97 1.453-4.849 1.453-3.607 0-5.808-2.003-2.184-2.018-2.184-5.77 0-2.426.943-4.246.943-1.82 2.863-2.722 1.936-.917 4.203-.917 2.862 0 4.683 1.241 1.82 1.227 2.333 3.498l-2.896.381q-.414-1.509-1.473-2.27-1.042-.762-2.531-.762-2.25 0-3.657 1.382-1.407 1.368-1.407 4.345 0 3.018 1.357 4.387 1.357 1.368 3.541 1.368 1.754 0 2.929-.917 1.175-.917 1.49-2.821zM274.602 297.999l2.946-.395q.248 1.509 1.373 2.313 1.142.804 3.177.804 2.052 0 3.045-.705.993-.72.993-1.679 0-.86-.877-1.354-.613-.339-3.045-.86-3.276-.706-4.55-1.214-1.258-.522-1.92-1.424-.645-.917-.645-2.018 0-1.001.529-1.848.546-.86 1.473-1.424.695-.438 1.886-.734 1.208-.31 2.582-.31 2.068 0 3.624.508 1.572.507 2.316 1.382.745.86 1.026 2.313l-2.912.339q-.199-1.157-1.159-1.806-.943-.648-2.68-.648-2.052 0-2.93.578-.876.578-.876 1.354 0 .494.364.889.364.409 1.142.677.446.14 2.63.649 3.161.72 4.402 1.185 1.258.451 1.97 1.326.711.874.711 2.172 0 1.27-.877 2.398-.86 1.114-2.499 1.735-1.638.607-3.706.607-3.426 0-5.23-1.213-1.786-1.214-2.283-3.597z" style="-inkscape-font-specification:Arial"/></g><path stroke="#000" stroke-width="1.6" stroke-linecap="round" d="M68.148 241.25h20.854v11.47H68.148z"/></svg>